<svg width="100%" viewBox="0 0 1100 720" xmlns="http://www.w3.org/2000/svg" font-family="-apple-system, system-ui, sans-serif">
  <defs>
    <marker id="arr2" viewBox="0 0 10 10" refX="8" refY="5" markerWidth="8" markerHeight="8" orient="auto-start-reverse">
      <path d="M2 1L8 5L2 9" fill="none" stroke="#9c9a92" stroke-width="1.5" stroke-linecap="round" stroke-linejoin="round"/>
    </marker>
    <style>
      .title    { font-size: 18px; font-weight: 700; fill: #fff; }
      .subtitle { font-size: 12px; fill: #b4b2a9; }
      .colT     { font-size: 14px; font-weight: 700; fill: #fff; }
      .colS     { font-size: 11px; fill: rgba(255,255,255,0.7); font-family: ui-monospace, SFMono-Regular, monospace; }
      .sectT    { font-size: 10px; font-weight: 700; fill: rgba(255,255,255,0.65); letter-spacing: 0.08em; }
      .item     { font-size: 12px; fill: #fff; font-family: ui-monospace, SFMono-Regular, monospace; }
      .dbName   { font-size: 13px; font-weight: 700; fill: #fff; font-family: ui-monospace, SFMono-Regular, monospace; }
      .legendT  { font-size: 10px; font-weight: 700; fill: #c2c0b6; letter-spacing: 0.08em; }
      .legendL  { font-size: 11px; fill: #b4b2a9; }
      .note     { font-size: 11px; fill: #c2c0b6; }
    </style>
  </defs>

  <!-- ── Title ─────────────────────────────────────────────────── -->
  <text x="550" y="34" text-anchor="middle" class="title">MCP servers — tools, DB, skills</text>
  <text x="550" y="54" text-anchor="middle" class="subtitle">4 MCP servers · 17 tools total · 4 SQLite DBs · skills loaded at the agent layer</text>

  <!-- ── Legend ─────────────────────────────────────────────────── -->
  <g transform="translate(820, 70)">
    <rect x="0" y="0" width="260" height="64" rx="6" fill="#1a1a1a" stroke="#2a2a2a"/>
    <text x="12" y="18" class="legendT">LEGEND</text>
    <rect x="12" y="26" width="12" height="12" rx="3" fill="#4738a0" stroke="#afa9ec"/>
    <text x="30" y="36" class="legendL">Tools (LLM-callable)</text>
    <rect x="148" y="26" width="12" height="12" rx="3" fill="#1e4633" stroke="#86c9aa"/>
    <text x="166" y="36" class="legendL">SQLite DB</text>
    <rect x="12" y="44" width="12" height="12" rx="3" fill="#5c4513" stroke="#e6a44e"/>
    <text x="30" y="54" class="legendL">Skill (agent-level)</text>
  </g>

  <!-- ── Skills strip (agent-level) ─────────────────────────────── -->
  <g transform="translate(20, 80)">
    <rect width="780" height="56" rx="8" fill="#1a1a1a" stroke="#2a2a2a"/>
    <text x="14" y="20" class="sectT">SKILLS · loaded by agents at runtime · orthogonal to MCP tools</text>
    <g transform="translate(14, 28)">
      <rect width="140" height="22" rx="11" fill="#5c4513" stroke="#e6a44e"/>
      <text x="70" y="15" text-anchor="middle" class="item">upsell</text>
    </g>
    <g transform="translate(162, 28)">
      <rect width="140" height="22" rx="11" fill="#5c4513" stroke="#e6a44e"/>
      <text x="70" y="15" text-anchor="middle" class="item">vip_protocol</text>
    </g>
    <g transform="translate(310, 28)">
      <rect width="140" height="22" rx="11" fill="#5c4513" stroke="#e6a44e"/>
      <text x="70" y="15" text-anchor="middle" class="item">handle_complaint</text>
    </g>
    <g transform="translate(458, 28)">
      <rect width="140" height="22" rx="11" fill="#5c4513" stroke="#e6a44e"/>
      <text x="70" y="15" text-anchor="middle" class="item">allergen_check</text>
    </g>
    <g transform="translate(606, 28)">
      <rect width="160" height="22" rx="11" fill="#5c4513" stroke="#e6a44e"/>
      <text x="80" y="15" text-anchor="middle" class="item">86_item_protocol</text>
    </g>
  </g>

  <!-- ── POS column ─────────────────────────────────────────────── -->
  <g transform="translate(20, 162)">
    <!-- Header -->
    <rect width="260" height="52" rx="8" fill="#FF7518" stroke="#e6a44e"/>
    <text x="130" y="22" text-anchor="middle" class="colT">POS</text>
    <text x="130" y="40" text-anchor="middle" class="colS">port 4001</text>

    <!-- Tools -->
    <g transform="translate(0, 64)">
      <rect width="260" height="186" rx="8" fill="#4738a0" stroke="#afa9ec"/>
      <text x="14" y="20" class="sectT">TOOLS · 4</text>
      <g transform="translate(14, 30)"><rect width="232" height="26" rx="4" fill="#2d2275"/><text x="14" y="18" class="item">pos__search_menu</text></g>
      <g transform="translate(14, 62)"><rect width="232" height="26" rx="4" fill="#2d2275"/><text x="14" y="18" class="item">pos__get_order</text></g>
      <g transform="translate(14, 94)"><rect width="232" height="26" rx="4" fill="#2d2275"/><text x="14" y="18" class="item">pos__create_order</text></g>
      <g transform="translate(14, 126)"><rect width="232" height="26" rx="4" fill="#2d2275"/><text x="14" y="18" class="item">pos__update_order_status</text></g>
    </g>

    <!-- DB + tables -->
    <line x1="130" y1="252" x2="130" y2="278" stroke="#9c9a92" stroke-width="1.5" marker-end="url(#arr2)"/>
    <g transform="translate(0, 280)">
      <rect width="260" height="184" rx="8" fill="#1e4633" stroke="#86c9aa"/>
      <text x="14" y="22" class="dbName">pos.db</text>
      <text x="14" y="40" class="sectT">TABLES · 4</text>
      <g transform="translate(14, 50)"><rect width="232" height="22" rx="3" fill="#143324"/><text x="14" y="16" class="item">menu_item</text></g>
      <g transform="translate(14, 78)"><rect width="232" height="22" rx="3" fill="#143324"/><text x="14" y="16" class="item">order</text></g>
      <g transform="translate(14, 106)"><rect width="232" height="22" rx="3" fill="#143324"/><text x="14" y="16" class="item">order_line</text></g>
      <g transform="translate(14, 134)"><rect width="232" height="22" rx="3" fill="#143324"/><text x="14" y="16" class="item">customer</text></g>
    </g>
  </g>

  <!-- ── Kitchen Display column ─────────────────────────────────── -->
  <g transform="translate(290, 162)">
    <rect width="260" height="52" rx="8" fill="#FF7518" stroke="#e6a44e"/>
    <text x="130" y="22" text-anchor="middle" class="colT">Kitchen Display</text>
    <text x="130" y="40" text-anchor="middle" class="colS">port 4002</text>

    <g transform="translate(0, 64)">
      <rect width="260" height="186" rx="8" fill="#4738a0" stroke="#afa9ec"/>
      <text x="14" y="20" class="sectT">TOOLS · 4</text>
      <g transform="translate(14, 30)"><rect width="232" height="26" rx="4" fill="#2d2275"/><text x="14" y="18" class="item">kitchen-display__send_ticket</text></g>
      <g transform="translate(14, 62)"><rect width="232" height="26" rx="4" fill="#2d2275"/><text x="14" y="18" class="item">kitchen-display__mark_ready</text></g>
      <g transform="translate(14, 94)"><rect width="232" height="26" rx="4" fill="#2d2275"/><text x="14" y="18" class="item">kitchen-display__expedite</text></g>
      <g transform="translate(14, 126)"><rect width="232" height="26" rx="4" fill="#2d2275"/><text x="14" y="18" class="item">kitchen-display__get_queue</text></g>
    </g>

    <line x1="130" y1="252" x2="130" y2="278" stroke="#9c9a92" stroke-width="1.5" marker-end="url(#arr2)"/>
    <g transform="translate(0, 280)">
      <rect width="260" height="184" rx="8" fill="#1e4633" stroke="#86c9aa"/>
      <text x="14" y="22" class="dbName">kitchen-display.db</text>
      <text x="14" y="40" class="sectT">TABLES · 3</text>
      <g transform="translate(14, 50)"><rect width="232" height="22" rx="3" fill="#143324"/><text x="14" y="16" class="item">ticket</text></g>
      <g transform="translate(14, 78)"><rect width="232" height="22" rx="3" fill="#143324"/><text x="14" y="16" class="item">ticket_line</text></g>
      <g transform="translate(14, 106)"><rect width="232" height="22" rx="3" fill="#143324"/><text x="14" y="16" class="item">station</text></g>
    </g>
  </g>

  <!-- ── Payment column ─────────────────────────────────────────── -->
  <g transform="translate(560, 162)">
    <rect width="260" height="52" rx="8" fill="#FF7518" stroke="#e6a44e"/>
    <text x="130" y="22" text-anchor="middle" class="colT">Payment</text>
    <text x="130" y="40" text-anchor="middle" class="colS">port 4013</text>

    <g transform="translate(0, 64)">
      <rect width="260" height="186" rx="8" fill="#4738a0" stroke="#afa9ec"/>
      <text x="14" y="20" class="sectT">TOOLS · 4</text>
      <g transform="translate(14, 30)"><rect width="232" height="26" rx="4" fill="#2d2275"/><text x="14" y="18" class="item">payment__process_payment</text></g>
      <g transform="translate(14, 62)"><rect width="232" height="26" rx="4" fill="#2d2275"/><text x="14" y="18" class="item">payment__void_payment</text></g>
      <g transform="translate(14, 94)"><rect width="232" height="26" rx="4" fill="#2d2275"/><text x="14" y="18" class="item">payment__refund</text></g>
      <g transform="translate(14, 126)"><rect width="232" height="26" rx="4" fill="#2d2275"/><text x="14" y="18" class="item">payment__get_payment</text></g>
    </g>

    <line x1="130" y1="252" x2="130" y2="278" stroke="#9c9a92" stroke-width="1.5" marker-end="url(#arr2)"/>
    <g transform="translate(0, 280)">
      <rect width="260" height="184" rx="8" fill="#1e4633" stroke="#86c9aa"/>
      <text x="14" y="22" class="dbName">payment.db</text>
      <text x="14" y="40" class="sectT">TABLES · 3</text>
      <g transform="translate(14, 50)"><rect width="232" height="22" rx="3" fill="#143324"/><text x="14" y="16" class="item">payment_intent</text></g>
      <g transform="translate(14, 78)"><rect width="232" height="22" rx="3" fill="#143324"/><text x="14" y="16" class="item">refund</text></g>
      <g transform="translate(14, 106)"><rect width="232" height="22" rx="3" fill="#143324"/><text x="14" y="16" class="item">pending_approval</text></g>
    </g>
  </g>

  <!-- ── Supplier column ────────────────────────────────────────── -->
  <g transform="translate(830, 162)">
    <rect width="260" height="52" rx="8" fill="#FF7518" stroke="#e6a44e"/>
    <text x="130" y="22" text-anchor="middle" class="colT">Supplier</text>
    <text x="130" y="40" text-anchor="middle" class="colS">port 4014</text>

    <g transform="translate(0, 64)">
      <rect width="260" height="218" rx="8" fill="#4738a0" stroke="#afa9ec"/>
      <text x="14" y="20" class="sectT">TOOLS · 5</text>
      <g transform="translate(14, 30)"><rect width="232" height="26" rx="4" fill="#2d2275"/><text x="14" y="18" class="item">supplier__list_suppliers</text></g>
      <g transform="translate(14, 62)"><rect width="232" height="26" rx="4" fill="#2d2275"/><text x="14" y="18" class="item">supplier__get_ingredient_stock</text></g>
      <g transform="translate(14, 94)"><rect width="232" height="26" rx="4" fill="#2d2275"/><text x="14" y="18" class="item">supplier__place_order</text></g>
      <g transform="translate(14, 126)"><rect width="232" height="26" rx="4" fill="#2d2275"/><text x="14" y="18" class="item">supplier__get_lead_time</text></g>
      <g transform="translate(14, 158)"><rect width="232" height="26" rx="4" fill="#2d2275"/><text x="14" y="18" class="item">supplier__record_ingredient…</text></g>
    </g>

    <line x1="130" y1="284" x2="130" y2="310" stroke="#9c9a92" stroke-width="1.5" marker-end="url(#arr2)"/>
    <g transform="translate(0, 312)">
      <rect width="260" height="220" rx="8" fill="#1e4633" stroke="#86c9aa"/>
      <text x="14" y="22" class="dbName">supplier.db</text>
      <text x="14" y="40" class="sectT">TABLES · 5</text>
      <g transform="translate(14, 50)"><rect width="232" height="22" rx="3" fill="#143324"/><text x="14" y="16" class="item">supplier</text></g>
      <g transform="translate(14, 78)"><rect width="232" height="22" rx="3" fill="#143324"/><text x="14" y="16" class="item">ingredient</text></g>
      <g transform="translate(14, 106)"><rect width="232" height="22" rx="3" fill="#143324"/><text x="14" y="16" class="item">supplier_order</text></g>
      <g transform="translate(14, 134)"><rect width="232" height="22" rx="3" fill="#143324"/><text x="14" y="16" class="item">supplier_order_line</text></g>
      <g transform="translate(14, 162)"><rect width="232" height="22" rx="3" fill="#143324"/><text x="14" y="16" class="item">ingredient_consumption</text></g>
    </g>
  </g>

</svg>
